<svg width="96" height="11" viewBox="0 0 96 11" fill="none" xmlns="http://www.w3.org/2000/svg">
<path d="M1.01855 3.07617H1.94824V10.5H1.01855V3.07617ZM1.47656 1.81152C1.35807 1.81152 1.24642 1.78418 1.1416 1.72949C1.03678 1.67025 0.954753 1.59049 0.895508 1.49023C0.836263 1.38542 0.806641 1.27604 0.806641 1.16211C0.806641 1.04362 0.836263 0.936523 0.895508 0.84082C0.954753 0.74056 1.03678 0.663086 1.1416 0.608398C1.24642 0.549154 1.35807 0.519531 1.47656 0.519531C1.60872 0.519531 1.72721 0.549154 1.83203 0.608398C1.93685 0.663086 2.01888 0.74056 2.07812 0.84082C2.13737 0.936523 2.16699 1.04362 2.16699 1.16211C2.16699 1.27604 2.13737 1.38542 2.07812 1.49023C2.01888 1.59049 1.93685 1.67025 1.83203 1.72949C1.72721 1.78418 1.60872 1.81152 1.47656 1.81152ZM6.89062 10.6504C6.22982 10.6504 5.64876 10.4863 5.14746 10.1582C4.64616 9.82552 4.25879 9.36979 3.98535 8.79102C3.71191 8.20768 3.5752 7.54915 3.5752 6.81543C3.5752 6.07715 3.71419 5.41634 3.99219 4.83301C4.27018 4.24967 4.65755 3.79395 5.1543 3.46582C5.65104 3.1377 6.22298 2.97363 6.87012 2.97363C7.37142 2.97363 7.82715 3.06934 8.2373 3.26074C8.65202 3.45215 8.98926 3.72559 9.24902 4.08105C9.50879 4.43197 9.67285 4.83757 9.74121 5.29785H8.79785C8.74316 5.01986 8.62923 4.76921 8.45605 4.5459C8.28288 4.31803 8.06185 4.13802 7.79297 4.00586C7.52865 3.8737 7.22786 3.80762 6.89062 3.80762C6.42578 3.80762 6.01335 3.93294 5.65332 4.18359C5.29785 4.43424 5.01758 4.78516 4.8125 5.23633C4.61198 5.68294 4.51172 6.2002 4.51172 6.78809C4.51172 7.37598 4.6097 7.90007 4.80566 8.36035C5.00618 8.81608 5.28418 9.17155 5.63965 9.42676C5.99967 9.68197 6.41667 9.80957 6.89062 9.80957C7.20964 9.80957 7.50358 9.75033 7.77246 9.63184C8.04134 9.51335 8.26465 9.34017 8.44238 9.1123C8.62467 8.88444 8.74544 8.62012 8.80469 8.31934H9.74121C9.67741 8.77051 9.5179 9.17155 9.2627 9.52246C9.01204 9.87337 8.68164 10.1491 8.27148 10.3496C7.86133 10.5501 7.40104 10.6504 6.89062 10.6504ZM14.2324 10.6504C13.5944 10.6504 13.0225 10.4886 12.5166 10.165C12.0153 9.84147 11.6257 9.3903 11.3477 8.81152C11.0697 8.22819 10.9307 7.56283 10.9307 6.81543C10.9307 6.06348 11.0697 5.39811 11.3477 4.81934C11.6257 4.236 12.0153 3.78255 12.5166 3.45898C13.0225 3.13542 13.5944 2.97363 14.2324 2.97363C14.8704 2.97363 15.4378 3.13542 15.9346 3.45898C16.4359 3.78255 16.8232 4.236 17.0967 4.81934C17.3747 5.39811 17.5137 6.06348 17.5137 6.81543C17.5137 7.56283 17.3747 8.22819 17.0967 8.81152C16.8232 9.3903 16.4359 9.84147 15.9346 10.165C15.4378 10.4886 14.8704 10.6504 14.2324 10.6504ZM14.2324 9.81641C14.7246 9.81641 15.1484 9.68197 15.5039 9.41309C15.8594 9.14421 16.1283 8.7819 16.3105 8.32617C16.4928 7.87044 16.584 7.36686 16.584 6.81543C16.584 6.264 16.4928 5.76042 16.3105 5.30469C16.1283 4.84896 15.8594 4.48665 15.5039 4.21777C15.1484 3.94434 14.7246 3.80762 14.2324 3.80762C13.7402 3.80762 13.3164 3.94434 12.9609 4.21777C12.6055 4.48665 12.3343 4.84896 12.1475 5.30469C11.9606 5.76042 11.8672 6.264 11.8672 6.81543C11.8672 7.36686 11.9583 7.87044 12.1406 8.32617C12.3275 8.7819 12.5986 9.14421 12.9541 9.41309C13.3141 9.68197 13.7402 9.81641 14.2324 9.81641ZM20.0771 10.5H19.1475V3.07617H20.0498V4.24512H20.125C20.3164 3.84408 20.5944 3.53418 20.959 3.31543C21.3281 3.09212 21.7816 2.98047 22.3193 2.98047C22.8252 2.98047 23.265 3.08529 23.6387 3.29492C24.0169 3.5 24.3086 3.80762 24.5137 4.21777C24.7233 4.62793 24.8281 5.12467 24.8281 5.70801V10.5H23.8984V5.7627C23.8984 5.36621 23.8232 5.02214 23.6729 4.73047C23.527 4.4388 23.3151 4.21549 23.0371 4.06055C22.7637 3.90104 22.4378 3.82129 22.0596 3.82129C21.6768 3.82129 21.335 3.9056 21.0342 4.07422C20.7334 4.23828 20.4987 4.47754 20.3301 4.79199C20.1615 5.10189 20.0771 5.46875 20.0771 5.89258V10.5ZM30.9531 4.9082C30.8711 4.55273 30.6911 4.27702 30.4131 4.08105C30.1351 3.88053 29.7728 3.78027 29.3262 3.78027C29.0026 3.77572 28.7132 3.82812 28.458 3.9375C28.2028 4.04688 28.0023 4.19954 27.8564 4.39551C27.7106 4.58691 27.6377 4.80339 27.6377 5.04492C27.6377 5.33203 27.7471 5.57585 27.9658 5.77637C28.1891 5.97233 28.5264 6.125 28.9775 6.23438L30.0986 6.51465C30.7275 6.66504 31.1992 6.9043 31.5137 7.23242C31.8281 7.56055 31.9854 7.97526 31.9854 8.47656C31.9854 8.89583 31.8737 9.27181 31.6504 9.60449C31.4316 9.93262 31.1126 10.1901 30.6934 10.377C30.2741 10.5592 29.7751 10.6504 29.1963 10.6504C28.6722 10.6504 28.2165 10.5729 27.8291 10.418C27.4463 10.2585 27.1364 10.026 26.8994 9.7207C26.667 9.41536 26.5189 9.04622 26.4551 8.61328H27.4326C27.5101 9.00977 27.6947 9.31283 27.9863 9.52246C28.2826 9.72754 28.679 9.83008 29.1758 9.83008C29.5449 9.83008 29.8685 9.77767 30.1465 9.67285C30.429 9.56803 30.6455 9.41764 30.7959 9.22168C30.9508 9.02116 31.0283 8.79102 31.0283 8.53125C31.0283 8.23047 30.9235 7.97982 30.7139 7.7793C30.5042 7.57422 30.1829 7.42383 29.75 7.32812L28.6152 7.05469C27.9909 6.9043 27.5146 6.66276 27.1865 6.33008C26.863 5.99284 26.7012 5.5804 26.7012 5.09277C26.7012 4.68717 26.8128 4.32259 27.0361 3.99902C27.2594 3.67546 27.5671 3.4248 27.959 3.24707C28.3555 3.06478 28.8112 2.97363 29.3262 2.97363C29.8001 2.97363 30.2194 3.05566 30.584 3.21973C30.9531 3.37923 31.2471 3.60482 31.4658 3.89648C31.6891 4.18815 31.8258 4.52539 31.876 4.9082H30.9531ZM34.3369 10.5752C34.2093 10.5752 34.0885 10.541 33.9746 10.4727C33.8607 10.4043 33.7718 10.3154 33.708 10.2061C33.6442 10.0921 33.6123 9.96908 33.6123 9.83691C33.6123 9.70931 33.6442 9.58854 33.708 9.47461C33.7718 9.36068 33.8607 9.27181 33.9746 9.20801C34.0885 9.14421 34.2116 9.1123 34.3438 9.1123C34.4714 9.1123 34.5921 9.14421 34.7061 9.20801C34.82 9.27181 34.9089 9.36068 34.9727 9.47461C35.0365 9.58854 35.0684 9.70931 35.0684 9.83691C35.0684 9.96908 35.0365 10.0921 34.9727 10.2061C34.9089 10.3154 34.82 10.4043 34.7061 10.4727C34.5921 10.541 34.4691 10.5752 34.3369 10.5752ZM39.9902 10.6504C39.3294 10.6504 38.7484 10.4863 38.2471 10.1582C37.7458 9.82552 37.3584 9.36979 37.085 8.79102C36.8115 8.20768 36.6748 7.54915 36.6748 6.81543C36.6748 6.07715 36.8138 5.41634 37.0918 4.83301C37.3698 4.24967 37.7572 3.79395 38.2539 3.46582C38.7507 3.1377 39.3226 2.97363 39.9697 2.97363C40.471 2.97363 40.9268 3.06934 41.3369 3.26074C41.7516 3.45215 42.0889 3.72559 42.3486 4.08105C42.6084 4.43197 42.7725 4.83757 42.8408 5.29785H41.8975C41.8428 5.01986 41.7288 4.76921 41.5557 4.5459C41.3825 4.31803 41.1615 4.13802 40.8926 4.00586C40.6283 3.8737 40.3275 3.80762 39.9902 3.80762C39.5254 3.80762 39.113 3.93294 38.7529 4.18359C38.3975 4.43424 38.1172 4.78516 37.9121 5.23633C37.7116 5.68294 37.6113 6.2002 37.6113 6.78809C37.6113 7.37598 37.7093 7.90007 37.9053 8.36035C38.1058 8.81608 38.3838 9.17155 38.7393 9.42676C39.0993 9.68197 39.5163 9.80957 39.9902 9.80957C40.3092 9.80957 40.6032 9.75033 40.8721 9.63184C41.141 9.51335 41.3643 9.34017 41.542 9.1123C41.7243 8.88444 41.8451 8.62012 41.9043 8.31934H42.8408C42.777 8.77051 42.6175 9.17155 42.3623 9.52246C42.1117 9.87337 41.7812 10.1491 41.3711 10.3496C40.9609 10.5501 40.5007 10.6504 39.9902 10.6504ZM45.3428 10.5H44.4131V0.601562H45.3428V4.24512H45.4248C45.6071 3.84408 45.8805 3.53418 46.2451 3.31543C46.6143 3.09212 47.0723 2.98047 47.6191 2.98047C48.1341 2.98047 48.5807 3.08529 48.959 3.29492C49.3372 3.5 49.6289 3.80762 49.834 4.21777C50.0436 4.62793 50.1484 5.12467 50.1484 5.70801V10.5H49.2188V5.7627C49.2188 5.36621 49.1436 5.02214 48.9932 4.73047C48.8428 4.43424 48.6286 4.20866 48.3506 4.05371C48.0726 3.89876 47.7445 3.82129 47.3662 3.82129C46.9788 3.82129 46.6325 3.9056 46.3271 4.07422C46.0218 4.23828 45.7803 4.47754 45.6025 4.79199C45.4294 5.10189 45.3428 5.46875 45.3428 5.89258V10.5ZM55.1865 10.6504C54.5029 10.6504 53.9036 10.4909 53.3887 10.1719C52.8737 9.85286 52.4772 9.40397 52.1992 8.8252C51.9212 8.24642 51.7822 7.58333 51.7822 6.83594C51.7822 6.0931 51.9212 5.42773 52.1992 4.83984C52.4772 4.25195 52.8646 3.79395 53.3613 3.46582C53.8581 3.1377 54.4255 2.97363 55.0635 2.97363C55.6286 2.97363 56.1504 3.10807 56.6289 3.37695C57.1074 3.64128 57.4902 4.04915 57.7773 4.60059C58.069 5.15202 58.2148 5.82878 58.2148 6.63086V7.06836H52.418V6.26172H57.2783C57.2783 5.79688 57.1849 5.37988 56.998 5.01074C56.8112 4.63704 56.5492 4.3431 56.2119 4.12891C55.8747 3.91471 55.4919 3.80762 55.0635 3.80762C54.6077 3.80762 54.2021 3.92839 53.8467 4.16992C53.4912 4.4069 53.2132 4.73047 53.0127 5.14062C52.8167 5.54622 52.7188 5.986 52.7188 6.45996V6.95215C52.7188 7.53092 52.819 8.03678 53.0195 8.46973C53.2246 8.90267 53.5117 9.23535 53.8809 9.46777C54.2546 9.7002 54.6898 9.81641 55.1865 9.81641C55.5101 9.81641 55.7972 9.76855 56.0479 9.67285C56.3031 9.57259 56.515 9.44954 56.6836 9.30371C56.8568 9.15788 56.9889 8.99609 57.0801 8.81836H58.0781C57.9642 9.16471 57.7751 9.47689 57.5107 9.75488C57.2464 10.0283 56.916 10.2471 56.5195 10.4111C56.123 10.5706 55.6787 10.6504 55.1865 10.6504ZM62.7812 10.6504C62.1204 10.6504 61.5394 10.4863 61.0381 10.1582C60.5368 9.82552 60.1494 9.36979 59.876 8.79102C59.6025 8.20768 59.4658 7.54915 59.4658 6.81543C59.4658 6.07715 59.6048 5.41634 59.8828 4.83301C60.1608 4.24967 60.5482 3.79395 61.0449 3.46582C61.5417 3.1377 62.1136 2.97363 62.7607 2.97363C63.262 2.97363 63.7178 3.06934 64.1279 3.26074C64.5426 3.45215 64.8799 3.72559 65.1396 4.08105C65.3994 4.43197 65.5635 4.83757 65.6318 5.29785H64.6885C64.6338 5.01986 64.5199 4.76921 64.3467 4.5459C64.1735 4.31803 63.9525 4.13802 63.6836 4.00586C63.4193 3.8737 63.1185 3.80762 62.7812 3.80762C62.3164 3.80762 61.904 3.93294 61.5439 4.18359C61.1885 4.43424 60.9082 4.78516 60.7031 5.23633C60.5026 5.68294 60.4023 6.2002 60.4023 6.78809C60.4023 7.37598 60.5003 7.90007 60.6963 8.36035C60.8968 8.81608 61.1748 9.17155 61.5303 9.42676C61.8903 9.68197 62.3073 9.80957 62.7812 9.80957C63.1003 9.80957 63.3942 9.75033 63.6631 9.63184C63.932 9.51335 64.1553 9.34017 64.333 9.1123C64.5153 8.88444 64.6361 8.62012 64.6953 8.31934H65.6318C65.568 8.77051 65.4085 9.17155 65.1533 9.52246C64.9027 9.87337 64.5723 10.1491 64.1621 10.3496C63.752 10.5501 63.2917 10.6504 62.7812 10.6504ZM68.0449 6.52148H68.2432L71.6611 3.07617H72.8301L69.3916 6.53516L69.3027 6.54883L68.0586 7.72461L68.0449 6.52148ZM67.2041 0.601562H68.1338V10.5H67.2041V0.601562ZM68.8721 6.71973L69.5215 6.07715L73.0283 10.5H71.8457L68.8721 6.71973ZM74.3477 0.601562H75.2773V4.4502H75.3594C75.528 4.1403 75.6898 3.89193 75.8447 3.70508C75.9997 3.51367 76.2275 3.34505 76.5283 3.19922C76.8291 3.04883 77.1891 2.97363 77.6084 2.97363C78.2145 2.97363 78.75 3.13314 79.2148 3.45215C79.6797 3.7666 80.042 4.21549 80.3018 4.79883C80.5615 5.3776 80.6914 6.04753 80.6914 6.80859C80.6914 7.5651 80.5615 8.23503 80.3018 8.81836C80.0465 9.40169 79.6865 9.85286 79.2217 10.1719C78.7614 10.4909 78.2282 10.6504 77.6221 10.6504C77.2028 10.6504 76.8428 10.5752 76.542 10.4248C76.2458 10.2744 76.0111 10.099 75.8379 9.89844C75.6693 9.69336 75.5098 9.44727 75.3594 9.16016H75.25V10.5H74.3477V0.601562ZM75.2568 6.78809C75.2568 7.37598 75.3457 7.89779 75.5234 8.35352C75.7012 8.80924 75.9587 9.16699 76.2959 9.42676C76.6377 9.68197 77.0365 9.80957 77.4922 9.80957C77.9616 9.80957 78.3672 9.67741 78.709 9.41309C79.0508 9.14876 79.3105 8.78874 79.4883 8.33301C79.666 7.87728 79.7549 7.3623 79.7549 6.78809C79.7549 6.21842 79.6683 5.71029 79.4951 5.26367C79.3219 4.8125 79.0645 4.45931 78.7227 4.2041C78.3809 3.94434 77.9707 3.81445 77.4922 3.81445C77.0273 3.81445 76.6263 3.93978 76.2891 4.19043C75.9564 4.44108 75.7012 4.78971 75.5234 5.23633C75.3457 5.68294 75.2568 6.2002 75.2568 6.78809ZM85.2441 10.6504C84.6061 10.6504 84.0342 10.4886 83.5283 10.165C83.027 9.84147 82.6374 9.3903 82.3594 8.81152C82.0814 8.22819 81.9424 7.56283 81.9424 6.81543C81.9424 6.06348 82.0814 5.39811 82.3594 4.81934C82.6374 4.236 83.027 3.78255 83.5283 3.45898C84.0342 3.13542 84.6061 2.97363 85.2441 2.97363C85.8822 2.97363 86.4495 3.13542 86.9463 3.45898C87.4476 3.78255 87.835 4.236 88.1084 4.81934C88.3864 5.39811 88.5254 6.06348 88.5254 6.81543C88.5254 7.56283 88.3864 8.22819 88.1084 8.81152C87.835 9.3903 87.4476 9.84147 86.9463 10.165C86.4495 10.4886 85.8822 10.6504 85.2441 10.6504ZM85.2441 9.81641C85.7363 9.81641 86.1602 9.68197 86.5156 9.41309C86.8711 9.14421 87.14 8.7819 87.3223 8.32617C87.5046 7.87044 87.5957 7.36686 87.5957 6.81543C87.5957 6.264 87.5046 5.76042 87.3223 5.30469C87.14 4.84896 86.8711 4.48665 86.5156 4.21777C86.1602 3.94434 85.7363 3.80762 85.2441 3.80762C84.752 3.80762 84.3281 3.94434 83.9727 4.21777C83.6172 4.48665 83.346 4.84896 83.1592 5.30469C82.9723 5.76042 82.8789 6.264 82.8789 6.81543C82.8789 7.36686 82.9701 7.87044 83.1523 8.32617C83.3392 8.7819 83.6104 9.14421 83.9658 9.41309C84.3258 9.68197 84.752 9.81641 85.2441 9.81641ZM92.3262 6.21387L94.2061 3.07617H95.2861L92.9004 6.78125L95.2861 10.5H94.2197L92.3262 7.47168L90.4531 10.5H89.3799L91.7246 6.78125L89.3799 3.07617H90.4531L92.3262 6.21387Z" fill="black"/>
</svg>
