<svg width="132" height="32" viewBox="0 0 132 32" fill="none" xmlns="http://www.w3.org/2000/svg">
<path d="M9.792 9.736C9.728 9.576 9.648 9.424 9.552 9.28C9.456 9.136 9.312 9.008 9.12 8.896C8.992 8.816 8.776 8.76 8.472 8.728C8.184 8.696 7.968 8.68 7.824 8.68V7.96H12.744V8.68C12.504 8.68 12.28 8.696 12.072 8.728C11.864 8.76 11.704 8.792 11.592 8.824C11.512 8.856 11.44 8.904 11.376 8.968C11.312 9.032 11.264 9.104 11.232 9.184C11.216 9.264 11.208 9.36 11.208 9.472C11.224 9.568 11.24 9.664 11.256 9.76L14.256 22.144L17.328 9.76C17.36 9.664 17.376 9.56 17.376 9.448C17.392 9.32 17.384 9.224 17.352 9.16C17.336 9.08 17.288 9.016 17.208 8.968C17.128 8.904 17.048 8.856 16.968 8.824C16.872 8.792 16.68 8.76 16.392 8.728C16.12 8.696 15.872 8.68 15.648 8.68V7.96H20.112V8.68C19.952 8.68 19.728 8.704 19.44 8.752C19.152 8.784 18.92 8.84 18.744 8.92C18.552 9.032 18.408 9.152 18.312 9.28C18.232 9.408 18.152 9.56 18.072 9.736L14.16 25.192H13.68L10.32 11.824L6.816 25.192H6.336L2.16 9.736C2.096 9.56 2.016 9.408 1.92 9.28C1.824 9.136 1.68 9.008 1.488 8.896C1.36 8.816 1.144 8.76 0.84 8.728C0.552 8.696 0.336 8.68 0.192 8.68V7.96H5.4V8.68C5.176 8.68 4.912 8.696 4.608 8.728C4.304 8.76 4.096 8.792 3.984 8.824C3.904 8.856 3.832 8.904 3.768 8.968C3.704 9.032 3.656 9.104 3.624 9.184C3.608 9.248 3.6 9.344 3.6 9.472C3.616 9.584 3.632 9.68 3.648 9.76L6.912 22.24L9.96 10.408L9.792 9.736ZM22.9838 15.472C22.9838 15.344 22.9598 15.216 22.9118 15.088C22.8638 14.96 22.7998 14.856 22.7198 14.776C22.6238 14.696 22.5038 14.632 22.3598 14.584C22.2318 14.52 22.0558 14.488 21.8318 14.488H21.2558V13.864C21.4478 13.864 21.7118 13.832 22.0478 13.768C22.3998 13.704 22.7038 13.624 22.9598 13.528C23.1518 13.448 23.3438 13.352 23.5358 13.24C23.7278 13.128 23.8878 13.016 24.0158 12.904H24.2798V23.008C24.2798 23.104 24.2878 23.216 24.3038 23.344C24.3358 23.456 24.3598 23.544 24.3758 23.608C24.4078 23.704 24.4558 23.792 24.5198 23.872C24.5838 23.936 24.6478 23.992 24.7118 24.04C24.7918 24.088 24.8798 24.128 24.9758 24.16C25.0718 24.192 25.1678 24.224 25.2638 24.256C25.3918 24.272 25.5518 24.296 25.7438 24.328C25.9358 24.344 26.0878 24.352 26.1998 24.352V25H21.0638V24.352C21.1758 24.352 21.3278 24.344 21.5198 24.328C21.7278 24.296 21.8878 24.272 21.9998 24.256C22.0958 24.224 22.1918 24.192 22.2878 24.16C22.3838 24.128 22.4718 24.088 22.5518 24.04C22.6318 23.992 22.6958 23.936 22.7438 23.872C22.8078 23.792 22.8558 23.704 22.8878 23.608C22.9198 23.544 22.9438 23.456 22.9598 23.344C22.9758 23.216 22.9838 23.104 22.9838 23.008V15.472ZM24.6398 8.92C24.6398 9.256 24.5198 9.544 24.2798 9.784C24.0558 10.024 23.7838 10.144 23.4638 10.144C23.1278 10.144 22.8398 10.024 22.5998 9.784C22.3758 9.544 22.2638 9.256 22.2638 8.92C22.2638 8.6 22.3758 8.32 22.5998 8.08C22.8398 7.84 23.1278 7.72 23.4638 7.72C23.7838 7.72 24.0558 7.84 24.2798 8.08C24.5198 8.32 24.6398 8.6 24.6398 8.92ZM35.9788 16.6L35.5228 16.768C35.3788 16.496 35.2028 16.216 34.9948 15.928C34.8028 15.64 34.6188 15.384 34.4428 15.16C34.3308 14.968 34.1548 14.768 33.9148 14.56C33.6748 14.336 33.4668 14.168 33.2908 14.056C33.0828 13.928 32.8188 13.824 32.4988 13.744C32.1788 13.648 31.8908 13.6 31.6348 13.6C31.3788 13.6 31.1068 13.648 30.8188 13.744C30.5468 13.824 30.3228 13.936 30.1468 14.08C30.0028 14.192 29.8668 14.32 29.7388 14.464C29.6268 14.608 29.5308 14.76 29.4508 14.92C29.3868 15.064 29.3308 15.232 29.2828 15.424C29.2508 15.616 29.2348 15.776 29.2348 15.904C29.2348 16.16 29.2828 16.384 29.3788 16.576C29.4748 16.768 29.5788 16.928 29.6908 17.056C29.8188 17.184 29.9868 17.32 30.1948 17.464C30.4188 17.608 30.6268 17.72 30.8188 17.8C31.1068 17.912 31.4028 18.024 31.7068 18.136C32.0268 18.248 32.3148 18.344 32.5708 18.424C32.8268 18.504 33.1068 18.6 33.4108 18.712C33.7148 18.824 33.9868 18.944 34.2268 19.072C34.5148 19.232 34.7628 19.384 34.9708 19.528C35.1788 19.656 35.3628 19.832 35.5228 20.056C35.7308 20.312 35.8828 20.624 35.9788 20.992C36.0748 21.36 36.1228 21.688 36.1228 21.976C36.1228 22.216 36.0668 22.528 35.9548 22.912C35.8428 23.28 35.7068 23.576 35.5468 23.8C35.3708 24.056 35.1708 24.272 34.9468 24.448C34.7228 24.624 34.4988 24.776 34.2748 24.904C34.0188 25.064 33.7148 25.176 33.3628 25.24C33.0108 25.304 32.6508 25.336 32.2828 25.336C32.0428 25.336 31.7628 25.296 31.4428 25.216C31.1228 25.136 30.8588 25.056 30.6508 24.976C30.4748 24.896 30.3068 24.832 30.1468 24.784C30.0028 24.736 29.8908 24.712 29.8108 24.712C29.7308 24.712 29.5788 24.776 29.3548 24.904C29.1308 25.032 28.9788 25.12 28.8988 25.168L27.6028 21.256L28.0588 21.064C28.2668 21.48 28.5788 21.984 28.9948 22.576C29.4268 23.168 29.8188 23.592 30.1708 23.848C30.4108 24.008 30.7308 24.168 31.1308 24.328C31.5468 24.488 31.9068 24.568 32.2108 24.568C32.4348 24.568 32.6828 24.552 32.9548 24.52C33.2428 24.488 33.4508 24.44 33.5788 24.376C33.7388 24.296 33.8988 24.2 34.0588 24.088C34.2188 23.96 34.3628 23.808 34.4908 23.632C34.6188 23.456 34.7148 23.224 34.7788 22.936C34.8428 22.632 34.8748 22.4 34.8748 22.24C34.8748 22.08 34.8348 21.896 34.7548 21.688C34.6908 21.48 34.6108 21.296 34.5148 21.136C34.4348 20.992 34.2988 20.848 34.1068 20.704C33.9308 20.56 33.7308 20.432 33.5068 20.32C33.3468 20.24 33.1148 20.144 32.8108 20.032C32.5228 19.904 32.2908 19.808 32.1148 19.744C31.8588 19.648 31.5708 19.544 31.2508 19.432C30.9468 19.32 30.6588 19.208 30.3868 19.096C30.1308 18.984 29.8508 18.848 29.5468 18.688C29.2428 18.512 28.9708 18.296 28.7308 18.04C28.5388 17.832 28.3788 17.56 28.2508 17.224C28.1228 16.888 28.0588 16.576 28.0588 16.288C28.0588 16.016 28.0828 15.76 28.1308 15.52C28.1788 15.264 28.2588 15.032 28.3708 14.824C28.4668 14.616 28.5708 14.432 28.6828 14.272C28.7948 14.112 28.9548 13.944 29.1628 13.768C29.3228 13.64 29.4908 13.528 29.6668 13.432C29.8588 13.32 30.0668 13.224 30.2908 13.144C30.4828 13.064 30.7148 13.008 30.9868 12.976C31.2748 12.928 31.4828 12.904 31.6108 12.904C31.8828 12.904 32.1628 12.936 32.4508 13C32.7548 13.064 33.0108 13.16 33.2188 13.288C33.4108 13.384 33.5628 13.464 33.6748 13.528C33.8028 13.592 33.8908 13.624 33.9388 13.624C34.0188 13.592 34.1628 13.536 34.3708 13.456C34.5788 13.36 34.7388 13.248 34.8508 13.12L35.9788 16.6ZM39.3107 18.904C39.3107 19.4 39.3427 19.872 39.4067 20.32C39.4707 20.752 39.5427 21.104 39.6227 21.376C39.7347 21.76 39.8707 22.112 40.0307 22.432C40.2067 22.752 40.3827 23.024 40.5587 23.248C40.7347 23.456 40.9507 23.664 41.2067 23.872C41.4787 24.064 41.7427 24.208 41.9987 24.304C42.2227 24.384 42.4787 24.448 42.7667 24.496C43.0547 24.544 43.3507 24.568 43.6547 24.568C43.9747 24.568 44.3347 24.488 44.7347 24.328C45.1347 24.152 45.5107 23.928 45.8627 23.656C46.0867 23.48 46.3107 23.248 46.5347 22.96C46.7747 22.672 46.9667 22.4 47.1107 22.144L47.5187 22.336C47.3587 22.688 47.1667 23.032 46.9427 23.368C46.7347 23.688 46.4547 23.992 46.1027 24.28C45.6387 24.664 45.1347 24.936 44.5907 25.096C44.0627 25.272 43.5827 25.36 43.1507 25.36C42.7827 25.36 42.4547 25.328 42.1667 25.264C41.8787 25.216 41.5827 25.136 41.2787 25.024C40.9747 24.896 40.6627 24.736 40.3427 24.544C40.0387 24.336 39.7747 24.104 39.5507 23.848C39.3107 23.576 39.0867 23.288 38.8787 22.984C38.6867 22.68 38.5267 22.352 38.3987 22C38.2387 21.584 38.1107 21.096 38.0147 20.536C37.9187 19.96 37.8707 19.376 37.8707 18.784C37.8707 18.288 37.9267 17.784 38.0387 17.272C38.1507 16.744 38.2867 16.304 38.4467 15.952C38.5747 15.648 38.7347 15.344 38.9267 15.04C39.1187 14.736 39.3427 14.456 39.5987 14.2C39.7907 14.008 40.0227 13.824 40.2947 13.648C40.5827 13.456 40.8627 13.304 41.1347 13.192C41.3587 13.112 41.6227 13.048 41.9267 13C42.2307 12.936 42.5747 12.904 42.9587 12.904C43.6147 12.904 44.1827 13.04 44.6627 13.312C45.1587 13.568 45.5667 13.872 45.8867 14.224C46.1907 14.544 46.4307 14.872 46.6067 15.208C46.7827 15.528 46.9267 15.88 47.0387 16.264C47.1987 16.776 47.2947 17.256 47.3267 17.704C47.3587 18.136 47.3747 18.536 47.3747 18.904H39.3107ZM45.5027 18.232C45.7107 18.232 45.8387 18.152 45.8867 17.992C45.9347 17.832 45.9587 17.696 45.9587 17.584C45.9587 17.376 45.9427 17.152 45.9107 16.912C45.8787 16.672 45.8227 16.424 45.7427 16.168C45.6787 15.944 45.5907 15.712 45.4787 15.472C45.3827 15.232 45.2707 15.024 45.1427 14.848C44.8867 14.528 44.5587 14.24 44.1587 13.984C43.7747 13.728 43.3427 13.6 42.8627 13.6C42.3507 13.6 41.8947 13.72 41.4947 13.96C41.0947 14.2 40.7747 14.464 40.5347 14.752C40.3747 14.944 40.2227 15.168 40.0787 15.424C39.9507 15.68 39.8307 15.952 39.7187 16.24C39.6227 16.496 39.5427 16.792 39.4787 17.128C39.4147 17.448 39.3667 17.816 39.3347 18.232H45.5027Z" fill="black"/>
<path d="M62.792 9.736C62.728 9.576 62.648 9.424 62.552 9.28C62.456 9.136 62.312 9.008 62.12 8.896C61.992 8.816 61.776 8.76 61.472 8.728C61.184 8.696 60.968 8.68 60.824 8.68V7.96H65.744V8.68C65.504 8.68 65.28 8.696 65.072 8.728C64.864 8.76 64.704 8.792 64.592 8.824C64.512 8.856 64.44 8.904 64.376 8.968C64.312 9.032 64.264 9.104 64.232 9.184C64.216 9.264 64.208 9.36 64.208 9.472C64.224 9.568 64.24 9.664 64.256 9.76L67.256 22.144L70.328 9.76C70.36 9.664 70.376 9.56 70.376 9.448C70.392 9.32 70.384 9.224 70.352 9.16C70.336 9.08 70.288 9.016 70.208 8.968C70.128 8.904 70.048 8.856 69.968 8.824C69.872 8.792 69.68 8.76 69.392 8.728C69.12 8.696 68.872 8.68 68.648 8.68V7.96H73.112V8.68C72.952 8.68 72.728 8.704 72.44 8.752C72.152 8.784 71.92 8.84 71.744 8.92C71.552 9.032 71.408 9.152 71.312 9.28C71.232 9.408 71.152 9.56 71.072 9.736L67.16 25.192H66.68L63.32 11.824L59.816 25.192H59.336L55.16 9.736C55.096 9.56 55.016 9.408 54.92 9.28C54.824 9.136 54.68 9.008 54.488 8.896C54.36 8.816 54.144 8.76 53.84 8.728C53.552 8.696 53.336 8.68 53.192 8.68V7.96H58.4V8.68C58.176 8.68 57.912 8.696 57.608 8.728C57.304 8.76 57.096 8.792 56.984 8.824C56.904 8.856 56.832 8.904 56.768 8.968C56.704 9.032 56.656 9.104 56.624 9.184C56.608 9.248 56.6 9.344 56.6 9.472C56.616 9.584 56.632 9.68 56.648 9.76L59.912 22.24L62.96 10.408L62.792 9.736ZM81.4078 23.104C81.2478 23.312 81.0798 23.496 80.9038 23.656C80.7438 23.816 80.5838 23.96 80.4238 24.088C80.2318 24.248 80.0318 24.4 79.8238 24.544C79.6158 24.672 79.3838 24.8 79.1278 24.928C78.8558 25.056 78.5278 25.16 78.1438 25.24C77.7598 25.32 77.4238 25.36 77.1358 25.36C76.8958 25.36 76.5918 25.32 76.2238 25.24C75.8718 25.176 75.5598 25.056 75.2878 24.88C75.1278 24.768 74.9758 24.64 74.8318 24.496C74.7038 24.336 74.5918 24.176 74.4958 24.016C74.3998 23.84 74.3198 23.624 74.2558 23.368C74.1918 23.096 74.1598 22.832 74.1598 22.576C74.1598 22.192 74.2238 21.816 74.3518 21.448C74.4958 21.064 74.6718 20.744 74.8798 20.488C75.0718 20.264 75.3198 20.032 75.6238 19.792C75.9278 19.552 76.2158 19.352 76.4878 19.192C76.7598 19.032 77.1198 18.872 77.5678 18.712C78.0318 18.536 78.4238 18.408 78.7438 18.328C79.1118 18.232 79.5438 18.136 80.0398 18.04C80.5518 17.944 81.0078 17.864 81.4078 17.8V16.576C81.4078 16.368 81.3998 16.096 81.3838 15.76C81.3678 15.408 81.3118 15.104 81.2158 14.848C81.1358 14.624 80.9998 14.416 80.8078 14.224C80.6158 14.016 80.4078 13.864 80.1838 13.768C79.9758 13.688 79.7358 13.632 79.4638 13.6C79.1918 13.552 78.9518 13.528 78.7438 13.528C78.5838 13.528 78.3678 13.552 78.0958 13.6C77.8398 13.632 77.6238 13.688 77.4478 13.768C77.1918 13.88 76.9678 14.032 76.7758 14.224C76.5998 14.4 76.4958 14.6 76.4638 14.824C76.4638 15.032 76.5198 15.216 76.6318 15.376C76.7598 15.52 76.8238 15.728 76.8238 16C76.8238 16.272 76.7278 16.528 76.5358 16.768C76.3598 17.008 76.1118 17.128 75.7918 17.128C75.5838 17.128 75.3678 17.024 75.1438 16.816C74.9358 16.608 74.8318 16.336 74.8318 16C74.8318 15.552 74.9198 15.152 75.0958 14.8C75.2718 14.448 75.4558 14.176 75.6478 13.984C75.8238 13.808 76.0238 13.656 76.2478 13.528C76.4878 13.384 76.7278 13.272 76.9678 13.192C77.2558 13.096 77.5998 13.024 77.9998 12.976C78.4158 12.928 78.7758 12.904 79.0798 12.904C79.7358 12.92 80.2718 13.008 80.6878 13.168C81.1038 13.328 81.4718 13.544 81.7918 13.816C82.1438 14.12 82.3838 14.544 82.5118 15.088C82.6398 15.616 82.7038 16.192 82.7038 16.816V23.608C82.7038 23.832 82.7598 23.976 82.8718 24.04C82.9838 24.104 83.0878 24.136 83.1838 24.136C83.3118 24.136 83.4558 24.112 83.6158 24.064C83.7758 24 83.9038 23.912 83.9998 23.8C84.1118 23.72 84.1998 23.72 84.2638 23.8C84.3438 23.864 84.3518 23.96 84.2878 24.088C84.1918 24.248 84.0958 24.384 83.9998 24.496C83.9038 24.608 83.8078 24.712 83.7118 24.808C83.5838 24.936 83.4158 25.032 83.2078 25.096C82.9998 25.16 82.8478 25.192 82.7518 25.192C82.6398 25.192 82.4878 25.168 82.2958 25.12C82.1038 25.072 81.9278 24.968 81.7678 24.808C81.6398 24.68 81.5438 24.512 81.4798 24.304C81.4318 24.096 81.4078 23.896 81.4078 23.704V23.104ZM81.4078 18.448C80.9918 18.512 80.6158 18.592 80.2798 18.688C79.9438 18.768 79.6318 18.848 79.3438 18.928C79.0558 19.008 78.7198 19.128 78.3358 19.288C77.9678 19.432 77.6638 19.568 77.4238 19.696C77.1998 19.824 76.9518 20 76.6798 20.224C76.4238 20.432 76.2238 20.64 76.0798 20.848C75.9198 21.056 75.7918 21.312 75.6958 21.616C75.5998 21.92 75.5518 22.192 75.5518 22.432C75.5518 22.736 75.5838 22.984 75.6478 23.176C75.7118 23.368 75.7758 23.52 75.8398 23.632C75.9198 23.76 76.0318 23.888 76.1758 24.016C76.3358 24.144 76.4958 24.24 76.6558 24.304C76.8158 24.368 76.9998 24.416 77.2078 24.448C77.4318 24.48 77.6238 24.496 77.7838 24.496C78.1198 24.496 78.4318 24.448 78.7198 24.352C79.0078 24.256 79.2718 24.128 79.5117 23.968C79.7358 23.824 79.9438 23.68 80.1358 23.536C80.3278 23.376 80.5038 23.216 80.6638 23.056C80.7918 22.928 80.9198 22.792 81.0478 22.648C81.1758 22.504 81.2958 22.36 81.4078 22.216V18.448ZM88.3188 23.008C88.3188 23.104 88.3268 23.216 88.3428 23.344C88.3748 23.456 88.3988 23.544 88.4148 23.608C88.4468 23.704 88.4948 23.792 88.5588 23.872C88.6228 23.936 88.6868 23.992 88.7508 24.04C88.8308 24.088 88.9188 24.128 89.0148 24.16C89.1108 24.192 89.2068 24.224 89.3028 24.256C89.4308 24.272 89.5908 24.296 89.7828 24.328C89.9748 24.344 90.1268 24.352 90.2388 24.352V25H85.1028V24.352C85.2148 24.352 85.3668 24.344 85.5588 24.328C85.7668 24.296 85.9268 24.272 86.0388 24.256C86.1348 24.224 86.2308 24.192 86.3268 24.16C86.4228 24.128 86.5108 24.088 86.5908 24.04C86.6708 23.992 86.7348 23.936 86.7828 23.872C86.8468 23.792 86.8948 23.704 86.9268 23.608C86.9588 23.544 86.9828 23.456 86.9988 23.344C87.0148 23.216 87.0228 23.104 87.0228 23.008V10.192C87.0228 10.064 86.9988 9.936 86.9508 9.808C86.9028 9.68 86.8388 9.576 86.7588 9.496C86.6628 9.416 86.5428 9.352 86.3988 9.304C86.2708 9.24 86.0948 9.208 85.8708 9.208H85.2948V8.584C85.4868 8.584 85.7508 8.552 86.0868 8.488C86.4388 8.424 86.7428 8.344 86.9988 8.248C87.1908 8.168 87.3828 8.072 87.5748 7.96C87.7668 7.848 87.9268 7.736 88.0548 7.624H88.3188V23.008ZM94.8579 23.008C94.8579 23.104 94.8659 23.216 94.8819 23.344C94.9139 23.456 94.9379 23.544 94.9539 23.608C94.9859 23.704 95.0339 23.792 95.0979 23.872C95.1619 23.936 95.2259 23.992 95.2899 24.04C95.3699 24.088 95.4579 24.128 95.5539 24.16C95.6499 24.192 95.7459 24.224 95.8419 24.256C95.9699 24.272 96.1299 24.296 96.3219 24.328C96.5139 24.344 96.6659 24.352 96.7779 24.352V25H91.6419V24.352C91.7539 24.352 91.9059 24.344 92.0979 24.328C92.3059 24.296 92.4659 24.272 92.5779 24.256C92.6739 24.224 92.7699 24.192 92.8659 24.16C92.9619 24.128 93.0499 24.088 93.1299 24.04C93.2099 23.992 93.2739 23.936 93.3219 23.872C93.3859 23.792 93.4339 23.704 93.4659 23.608C93.4979 23.544 93.5219 23.456 93.5379 23.344C93.5539 23.216 93.5619 23.104 93.5619 23.008V10.192C93.5619 10.064 93.5379 9.936 93.4899 9.808C93.4419 9.68 93.3779 9.576 93.2979 9.496C93.2019 9.416 93.0819 9.352 92.9379 9.304C92.8099 9.24 92.6339 9.208 92.4099 9.208H91.8339V8.584C92.0259 8.584 92.2899 8.552 92.6259 8.488C92.9779 8.424 93.2819 8.344 93.5379 8.248C93.7299 8.168 93.9219 8.072 94.1139 7.96C94.3059 7.848 94.4659 7.736 94.5939 7.624H94.8579V23.008ZM99.7169 18.904C99.7169 19.4 99.7489 19.872 99.8129 20.32C99.8769 20.752 99.9489 21.104 100.029 21.376C100.141 21.76 100.277 22.112 100.437 22.432C100.613 22.752 100.789 23.024 100.965 23.248C101.141 23.456 101.357 23.664 101.613 23.872C101.885 24.064 102.149 24.208 102.405 24.304C102.629 24.384 102.885 24.448 103.173 24.496C103.461 24.544 103.757 24.568 104.061 24.568C104.381 24.568 104.741 24.488 105.141 24.328C105.541 24.152 105.917 23.928 106.269 23.656C106.493 23.48 106.717 23.248 106.941 22.96C107.181 22.672 107.373 22.4 107.517 22.144L107.925 22.336C107.765 22.688 107.573 23.032 107.349 23.368C107.141 23.688 106.861 23.992 106.509 24.28C106.045 24.664 105.541 24.936 104.997 25.096C104.469 25.272 103.989 25.36 103.557 25.36C103.189 25.36 102.861 25.328 102.573 25.264C102.285 25.216 101.989 25.136 101.685 25.024C101.381 24.896 101.069 24.736 100.749 24.544C100.445 24.336 100.181 24.104 99.9569 23.848C99.7169 23.576 99.4929 23.288 99.2849 22.984C99.0929 22.68 98.9329 22.352 98.8049 22C98.6449 21.584 98.5169 21.096 98.4209 20.536C98.3249 19.96 98.2769 19.376 98.2769 18.784C98.2769 18.288 98.3329 17.784 98.4449 17.272C98.5569 16.744 98.6929 16.304 98.8529 15.952C98.9809 15.648 99.1409 15.344 99.3329 15.04C99.5249 14.736 99.7489 14.456 100.005 14.2C100.197 14.008 100.429 13.824 100.701 13.648C100.989 13.456 101.269 13.304 101.541 13.192C101.765 13.112 102.029 13.048 102.333 13C102.637 12.936 102.981 12.904 103.365 12.904C104.021 12.904 104.589 13.04 105.069 13.312C105.565 13.568 105.973 13.872 106.293 14.224C106.597 14.544 106.837 14.872 107.013 15.208C107.189 15.528 107.333 15.88 107.445 16.264C107.605 16.776 107.701 17.256 107.733 17.704C107.765 18.136 107.781 18.536 107.781 18.904H99.7169ZM105.909 18.232C106.117 18.232 106.245 18.152 106.293 17.992C106.341 17.832 106.365 17.696 106.365 17.584C106.365 17.376 106.349 17.152 106.317 16.912C106.285 16.672 106.229 16.424 106.149 16.168C106.085 15.944 105.997 15.712 105.885 15.472C105.789 15.232 105.677 15.024 105.549 14.848C105.293 14.528 104.965 14.24 104.565 13.984C104.181 13.728 103.749 13.6 103.269 13.6C102.757 13.6 102.301 13.72 101.901 13.96C101.501 14.2 101.181 14.464 100.941 14.752C100.781 14.944 100.629 15.168 100.485 15.424C100.357 15.68 100.237 15.952 100.125 16.24C100.029 16.496 99.9489 16.792 99.8849 17.128C99.8209 17.448 99.7729 17.816 99.7409 18.232H105.909ZM112.721 8.464V13.24H115.937V13.912H112.721V22.576C112.721 22.704 112.729 22.864 112.745 23.056C112.777 23.248 112.809 23.4 112.841 23.512C112.873 23.608 112.937 23.72 113.033 23.848C113.129 23.96 113.225 24.048 113.321 24.112C113.449 24.176 113.561 24.232 113.657 24.28C113.753 24.312 113.889 24.328 114.065 24.328C114.193 24.328 114.345 24.304 114.521 24.256C114.697 24.192 114.841 24.128 114.953 24.064C115.081 23.984 115.201 23.912 115.313 23.848C115.425 23.768 115.537 23.672 115.649 23.56C115.761 23.448 115.865 23.344 115.961 23.248C116.057 23.136 116.153 23.008 116.249 22.864L116.657 23.152C116.529 23.376 116.393 23.592 116.249 23.8C116.105 24.008 115.969 24.176 115.841 24.304C115.697 24.448 115.537 24.592 115.361 24.736C115.201 24.864 115.025 24.968 114.833 25.048C114.625 25.144 114.393 25.216 114.137 25.264C113.897 25.312 113.697 25.336 113.537 25.336C113.425 25.336 113.297 25.32 113.153 25.288C113.009 25.272 112.873 25.24 112.745 25.192C112.633 25.16 112.513 25.104 112.385 25.024C112.257 24.944 112.153 24.864 112.073 24.784C111.977 24.704 111.889 24.608 111.809 24.496C111.745 24.384 111.681 24.256 111.617 24.112C111.553 23.984 111.505 23.8 111.473 23.56C111.441 23.304 111.425 23.072 111.425 22.864V13.912H109.025V13.24C109.217 13.24 109.489 13.208 109.841 13.144C110.193 13.08 110.449 13.008 110.609 12.928C110.849 12.8 111.049 12.632 111.209 12.424C111.369 12.216 111.497 11.992 111.593 11.752C111.673 11.56 111.745 11.336 111.809 11.08C111.873 10.808 111.921 10.552 111.953 10.312C111.985 10.072 112.017 9.768 112.049 9.4C112.081 9.032 112.105 8.72 112.121 8.464H112.721Z" fill="black"/>
</svg>
